<svg xmlns="http://www.w3.org/2000/svg" width="58" height="58" fill="none" viewBox="0 0 58 58">
  <path fill="#A50954" d="M14.529 43.5H50.75V9.667a4.838 4.838 0 0 0-4.833-4.834H14.5c-2.915 0-7.25 1.931-7.25 7.25v33.834c0 5.319 4.335 7.25 7.25 7.25h36.25v-4.834H14.529c-1.117-.029-2.446-.468-2.446-2.416 0-.244.022-.462.058-.66.271-1.392 1.412-1.733 2.388-1.757Zm6.37-25.032a5.375 5.375 0 0 1 7.552 0l.542.53.539-.53a5.377 5.377 0 0 1 7.554 0 5.145 5.145 0 0 1 0 7.417l-8.09 7.948-8.094-7.948a5.142 5.142 0 0 1-.003-7.417Z"/>
</svg>
